<svg width="175" height="30" viewBox="0 0 175 30" fill="none" xmlns="http://www.w3.org/2000/svg">
<rect width="175" height="30" fill="white"/>
<path d="M10.688 14.86C11.664 15.068 12.448 15.556 13.04 16.324C13.632 17.076 13.928 17.94 13.928 18.916C13.928 20.324 13.432 21.444 12.44 22.276C11.464 23.092 10.096 23.5 8.33601 23.5H0.488007V6.652H8.07201C9.78401 6.652 11.12 7.044 12.08 7.828C13.056 8.612 13.544 9.676 13.544 11.02C13.544 12.012 13.28 12.836 12.752 13.492C12.24 14.148 11.552 14.604 10.688 14.86ZM4.59201 13.468H7.28001C7.95201 13.468 8.46401 13.324 8.81601 13.036C9.18401 12.732 9.36801 12.292 9.36801 11.716C9.36801 11.14 9.18401 10.7 8.81601 10.396C8.46401 10.092 7.95201 9.94 7.28001 9.94H4.59201V13.468ZM7.61601 20.188C8.30401 20.188 8.83201 20.036 9.20001 19.732C9.58401 19.412 9.77601 18.956 9.77601 18.364C9.77601 17.772 9.57601 17.308 9.17601 16.972C8.79201 16.636 8.25601 16.468 7.56801 16.468H4.59201V20.188H7.61601ZM20.2923 16.78C20.2923 15.404 20.5483 14.196 21.0603 13.156C21.5883 12.116 22.3003 11.316 23.1963 10.756C24.0923 10.196 25.0923 9.916 26.1963 9.916C27.1403 9.916 27.9643 10.108 28.6683 10.492C29.3883 10.876 29.9403 11.38 30.3243 12.004V10.108H34.4283V23.5H30.3243V21.604C29.9243 22.228 29.3643 22.732 28.6443 23.116C27.9403 23.5 27.1163 23.692 26.1723 23.692C25.0843 23.692 24.0923 23.412 23.1963 22.852C22.3003 22.276 21.5883 21.468 21.0603 20.428C20.5483 19.372 20.2923 18.156 20.2923 16.78ZM30.3243 16.804C30.3243 15.78 30.0363 14.972 29.4603 14.38C28.9003 13.788 28.2123 13.492 27.3963 13.492C26.5803 13.492 25.8843 13.788 25.3083 14.38C24.7483 14.956 24.4683 15.756 24.4683 16.78C24.4683 17.804 24.7483 18.62 25.3083 19.228C25.8843 19.82 26.5803 20.116 27.3963 20.116C28.2123 20.116 28.9003 19.82 29.4603 19.228C30.0363 18.636 30.3243 17.828 30.3243 16.804ZM41.3814 16.804C41.3814 15.412 41.6614 14.196 42.2214 13.156C42.7974 12.116 43.5894 11.316 44.5974 10.756C45.6214 10.196 46.7894 9.916 48.1014 9.916C49.7814 9.916 51.1814 10.356 52.3014 11.236C53.4374 12.116 54.1814 13.356 54.5334 14.956H50.1654C49.7974 13.932 49.0854 13.42 48.0294 13.42C47.2774 13.42 46.6774 13.716 46.2294 14.308C45.7814 14.884 45.5574 15.716 45.5574 16.804C45.5574 17.892 45.7814 18.732 46.2294 19.324C46.6774 19.9 47.2774 20.188 48.0294 20.188C49.0854 20.188 49.7974 19.676 50.1654 18.652H54.5334C54.1814 20.22 53.4374 21.452 52.3014 22.348C51.1654 23.244 49.7654 23.692 48.1014 23.692C46.7894 23.692 45.6214 23.412 44.5974 22.852C43.5894 22.292 42.7974 21.492 42.2214 20.452C41.6614 19.412 41.3814 18.196 41.3814 16.804ZM69.7126 23.5L65.6326 17.884V23.5H61.5286V5.74H65.6326V15.556L69.6886 10.108H74.7526L69.1846 16.828L74.8006 23.5H69.7126Z" fill="#222222"/>
<path d="M89.7566 23.5L86.2526 17.14H85.2686V23.5H81.1646V6.652H88.0526C89.3806 6.652 90.5086 6.884 91.4366 7.348C92.3806 7.812 93.0846 8.452 93.5486 9.268C94.0126 10.068 94.2446 10.964 94.2446 11.956C94.2446 13.076 93.9246 14.076 93.2846 14.956C92.6606 15.836 91.7326 16.46 90.5006 16.828L94.3886 23.5H89.7566ZM85.2686 14.236H87.8126C88.5646 14.236 89.1246 14.052 89.4926 13.684C89.8766 13.316 90.0686 12.796 90.0686 12.124C90.0686 11.484 89.8766 10.98 89.4926 10.612C89.1246 10.244 88.5646 10.06 87.8126 10.06H85.2686V14.236ZM107.717 23.692C106.405 23.692 105.221 23.412 104.165 22.852C103.125 22.292 102.301 21.492 101.693 20.452C101.101 19.412 100.805 18.196 100.805 16.804C100.805 15.428 101.109 14.22 101.717 13.18C102.325 12.124 103.157 11.316 104.213 10.756C105.269 10.196 106.453 9.916 107.765 9.916C109.077 9.916 110.261 10.196 111.317 10.756C112.373 11.316 113.205 12.124 113.813 13.18C114.421 14.22 114.725 15.428 114.725 16.804C114.725 18.18 114.413 19.396 113.789 20.452C113.181 21.492 112.341 22.292 111.269 22.852C110.213 23.412 109.029 23.692 107.717 23.692ZM107.717 20.14C108.501 20.14 109.165 19.852 109.709 19.276C110.269 18.7 110.549 17.876 110.549 16.804C110.549 15.732 110.277 14.908 109.733 14.332C109.205 13.756 108.549 13.468 107.765 13.468C106.965 13.468 106.301 13.756 105.773 14.332C105.245 14.892 104.981 15.716 104.981 16.804C104.981 17.876 105.237 18.7 105.749 19.276C106.277 19.852 106.933 20.14 107.717 20.14ZM120.886 16.78C120.886 15.404 121.142 14.196 121.654 13.156C122.182 12.116 122.894 11.316 123.79 10.756C124.686 10.196 125.686 9.916 126.79 9.916C127.734 9.916 128.558 10.108 129.262 10.492C129.982 10.876 130.534 11.38 130.918 12.004V10.108H135.022V23.5H130.918V21.604C130.518 22.228 129.958 22.732 129.238 23.116C128.534 23.5 127.71 23.692 126.766 23.692C125.678 23.692 124.686 23.412 123.79 22.852C122.894 22.276 122.182 21.468 121.654 20.428C121.142 19.372 120.886 18.156 120.886 16.78ZM130.918 16.804C130.918 15.78 130.63 14.972 130.054 14.38C129.494 13.788 128.806 13.492 127.99 13.492C127.174 13.492 126.478 13.788 125.902 14.38C125.342 14.956 125.062 15.756 125.062 16.78C125.062 17.804 125.342 18.62 125.902 19.228C126.478 19.82 127.174 20.116 127.99 20.116C128.806 20.116 129.494 19.82 130.054 19.228C130.63 18.636 130.918 17.828 130.918 16.804ZM141.975 16.78C141.975 15.404 142.231 14.196 142.743 13.156C143.271 12.116 143.983 11.316 144.879 10.756C145.775 10.196 146.775 9.916 147.879 9.916C148.759 9.916 149.559 10.1 150.279 10.468C151.015 10.836 151.591 11.332 152.007 11.956V5.74H156.111V23.5H152.007V21.58C151.623 22.22 151.071 22.732 150.351 23.116C149.647 23.5 148.823 23.692 147.879 23.692C146.775 23.692 145.775 23.412 144.879 22.852C143.983 22.276 143.271 21.468 142.743 20.428C142.231 19.372 141.975 18.156 141.975 16.78ZM152.007 16.804C152.007 15.78 151.719 14.972 151.143 14.38C150.583 13.788 149.895 13.492 149.079 13.492C148.263 13.492 147.567 13.788 146.991 14.38C146.431 14.956 146.151 15.756 146.151 16.78C146.151 17.804 146.431 18.62 146.991 19.228C147.567 19.82 148.263 20.116 149.079 20.116C149.895 20.116 150.583 19.82 151.143 19.228C151.719 18.636 152.007 17.828 152.007 16.804ZM169.328 23.692C168.16 23.692 167.12 23.492 166.208 23.092C165.296 22.692 164.576 22.148 164.048 21.46C163.52 20.756 163.224 19.972 163.16 19.108H167.216C167.264 19.572 167.48 19.948 167.864 20.236C168.248 20.524 168.72 20.668 169.28 20.668C169.792 20.668 170.184 20.572 170.456 20.38C170.744 20.172 170.888 19.908 170.888 19.588C170.888 19.204 170.688 18.924 170.288 18.748C169.888 18.556 169.24 18.348 168.344 18.124C167.384 17.9 166.584 17.668 165.944 17.428C165.304 17.172 164.752 16.78 164.288 16.252C163.824 15.708 163.592 14.98 163.592 14.068C163.592 13.3 163.8 12.604 164.216 11.98C164.648 11.34 165.272 10.836 166.088 10.468C166.92 10.1 167.904 9.916 169.04 9.916C170.72 9.916 172.04 10.332 173 11.164C173.976 11.996 174.536 13.1 174.68 14.476H170.888C170.824 14.012 170.616 13.644 170.264 13.372C169.928 13.1 169.48 12.964 168.92 12.964C168.44 12.964 168.072 13.06 167.816 13.252C167.56 13.428 167.432 13.676 167.432 13.996C167.432 14.38 167.632 14.668 168.032 14.86C168.448 15.052 169.088 15.244 169.952 15.436C170.944 15.692 171.752 15.948 172.376 16.204C173 16.444 173.544 16.844 174.008 17.404C174.488 17.948 174.736 18.684 174.752 19.612C174.752 20.396 174.528 21.1 174.08 21.724C173.648 22.332 173.016 22.812 172.184 23.164C171.368 23.516 170.416 23.692 169.328 23.692Z" fill="#A3DA23"/>
</svg>
